<svg xmlns="http://www.w3.org/2000/svg" version="1.1" xmlns:xlink="http://www.w3.org/1999/xlink" width="32" height="32" x="0" y="0" viewBox="0 0 32 32" style="enable-background:new 0 0 512 512" xml:space="preserve" class=""><g><path d="M16 2A13.992 13.992 0 0 0 3.6 22.485l-1.57 6.273A1 1 0 0 0 3 30a.983.983 0 0 0 .243-.03l6.272-1.57A14 14 0 1 0 16 2zm0 26a12 12 0 0 1-5.861-1.534 1 1 0 0 0-.489-.128.978.978 0 0 0-.243.03l-5.032 1.258 1.258-5.033a1 1 0 0 0-.1-.731A12 12 0 1 1 16 28z" fill="#00ab97" opacity="1" data-original="#000000" class=""></path><path d="M22 12h-2.22l-.56-2.24a1 1 0 0 0-.97-.76h-4.5a1 1 0 0 0-.97.76L12.22 12H10a1 1 0 0 0 0 2h.13l1.13 8.14a1 1 0 0 0 .99.86h7.5a1 1 0 0 0 .99-.86L21.87 14H22a1 1 0 0 0 0-2zm-7.47-1h2.94l.25 1h-3.44z" fill="#00ab97" opacity="1" data-original="#000000" class=""></path></g></svg>