<svg width="35" height="34" viewBox="0 0 35 34" fill="none" xmlns="http://www.w3.org/2000/svg">
<ellipse cx="17.5" cy="17" rx="17.5" ry="17" fill="#00AB97"/>
<path d="M27.4547 9.42737C27.5798 9.55405 27.65 9.72562 27.65 9.9045C27.65 10.0834 27.5798 10.2549 27.4547 10.3816L26.0591 11.7927L23.3829 9.08946L24.7785 7.67834C24.904 7.55164 25.0741 7.48047 25.2516 7.48047C25.429 7.48047 25.5991 7.55164 25.7246 7.67834L27.4547 9.42602V9.42737ZM25.1131 12.747L22.4369 10.0437L13.3204 19.2538C13.2467 19.3282 13.1913 19.4189 13.1585 19.5187L12.0813 22.7816C12.0617 22.8411 12.059 22.9049 12.0733 22.9659C12.0876 23.0269 12.1184 23.0826 12.1623 23.1269C12.2061 23.1713 12.2613 23.2024 12.3217 23.2168C12.3821 23.2313 12.4452 23.2285 12.5041 23.2087L15.7343 22.1207C15.833 22.0879 15.9228 22.0324 15.9966 21.9585L25.1131 12.7484V12.747Z" fill="white"/>
<path fill-rule="evenodd" clip-rule="evenodd" d="M8.04999 25.0518C8.04999 25.5895 8.26146 26.1052 8.63787 26.4854C9.01428 26.8657 9.52481 27.0793 10.0571 27.0793H24.7763C25.3086 27.0793 25.8191 26.8657 26.1955 26.4854C26.572 26.1052 26.7834 25.5895 26.7834 25.0518V16.9419C26.7834 16.7627 26.7129 16.5908 26.5875 16.4641C26.462 16.3373 26.2918 16.2661 26.1144 16.2661C25.9369 16.2661 25.7667 16.3373 25.6413 16.4641C25.5158 16.5908 25.4453 16.7627 25.4453 16.9419V25.0518C25.4453 25.231 25.3748 25.4029 25.2494 25.5297C25.1239 25.6564 24.9537 25.7276 24.7763 25.7276H10.0571C9.8797 25.7276 9.70952 25.6564 9.58405 25.5297C9.45858 25.4029 9.38809 25.231 9.38809 25.0518V10.1837C9.38809 10.0045 9.45858 9.83258 9.58405 9.70584C9.70952 9.5791 9.8797 9.50789 10.0571 9.50789H18.7548C18.9322 9.50789 19.1024 9.43669 19.2279 9.30995C19.3534 9.18321 19.4239 9.01131 19.4239 8.83207C19.4239 8.65283 19.3534 8.48093 19.2279 8.35419C19.1024 8.22745 18.9322 8.15625 18.7548 8.15625H10.0571C9.52481 8.15625 9.01428 8.36986 8.63787 8.75008C8.26146 9.1303 8.04999 9.646 8.04999 10.1837V25.0518Z" fill="white"/>
</svg>
