<svg width="50" height="50" viewBox="0 0 50 50" fill="none" xmlns="http://www.w3.org/2000/svg">
<circle cx="25" cy="25" r="25" fill="#00AB97"/>
<path d="M15.9704 11.0659C13.6929 11.4574 11.823 13.1675 11.1838 15.4529C11.0559 15.9004 11.0399 16.292 11.0399 18.3537V20.743L11.3036 20.9747C11.7192 21.3503 12.3984 21.2304 12.5822 20.751C12.6381 20.6151 12.6861 19.6722 12.702 18.3696C12.726 16.4278 12.75 16.1641 12.9018 15.6847C13.3333 14.3821 14.4121 13.3033 15.7147 12.8798C16.1781 12.728 16.4738 12.712 18.4716 12.672C20.9008 12.6321 20.9648 12.6241 21.1486 12.1766C21.2844 11.857 21.1885 11.4494 20.9408 11.2097L20.733 11.0179L18.5675 11.0019C17.3688 11.0019 16.2021 11.0259 15.9704 11.0659Z" fill="white"/>
<path d="M30.2903 11.0498C29.7629 11.2736 29.6111 12.0167 30.0026 12.4163L30.2264 12.64L32.5038 12.672C34.6853 12.704 34.7972 12.712 35.3406 12.9117C36.6591 13.3752 37.5301 14.2542 38.0735 15.6447C38.1774 15.9084 38.2094 16.4518 38.2413 18.3057C38.2893 20.5112 38.2973 20.647 38.4571 20.8628C38.8327 21.3742 39.6558 21.2623 39.9035 20.671C40.0074 20.4153 40.0154 20.0397 39.9834 18.2098C39.9434 15.7326 39.8875 15.4369 39.3121 14.2542C39.0005 13.6149 38.8247 13.3752 38.2174 12.7679C37.6021 12.1526 37.3703 11.9848 36.731 11.6731C35.4844 11.0578 35.3246 11.0338 32.7355 11.0019C31.4809 10.9939 30.3782 11.0099 30.2903 11.0498Z" fill="white"/>
<path d="M19.7981 19.7599L19.5504 19.9917V22.0294V24.0671L19.7502 24.3068C20.0059 24.6105 20.3255 24.6904 20.6931 24.5306C21.1966 24.3228 21.2285 24.171 21.2285 21.9974V20.0716L20.9568 19.7999C20.5892 19.4323 20.1657 19.4243 19.7981 19.7599Z" fill="white"/>
<path d="M24.9124 19.7601L24.6646 19.9918V22.7567C24.6646 24.9703 24.6407 25.5776 24.5528 25.8013C24.4329 26.081 24.0813 26.3207 23.7856 26.3207C23.4899 26.3207 23.1383 26.5605 23.0185 26.8401C22.8667 27.2077 22.9546 27.5593 23.2502 27.8071C23.482 27.9988 23.5459 28.0148 24.0253 27.9829C24.9124 27.9189 25.6795 27.3915 26.079 26.5764L26.3028 26.121L26.3268 23.1004L26.3507 20.0797L26.071 19.8001C25.7035 19.4325 25.2799 19.4165 24.9124 19.7601Z" fill="white"/>
<path d="M30.0266 19.7599L29.7789 19.9917V22.0294V24.0671L29.9786 24.3068C30.2344 24.6105 30.554 24.6904 30.9216 24.5306C31.425 24.3228 31.457 24.171 31.457 21.9974V20.0716L31.1853 19.7999C30.8177 19.4323 30.3942 19.4243 30.0266 19.7599Z" fill="white"/>
<path d="M11.2717 30.0285L11 30.3002V32.4258C11 34.6792 11.0719 35.3105 11.4075 36.1815C11.879 37.3802 13.0297 38.6508 14.1724 39.2501C15.3391 39.8574 15.7067 39.9213 18.144 39.9613C20.5732 40.0092 20.821 39.9693 21.0687 39.5617C21.2685 39.2341 21.2685 38.9784 21.0687 38.6508C20.9648 38.483 20.821 38.3711 20.6132 38.3152C20.4374 38.2672 19.4625 38.2272 18.3118 38.2272C16.9054 38.2272 16.1942 38.1953 15.9145 38.1154C14.524 37.7478 13.3494 36.637 12.9019 35.2786C12.75 34.8071 12.7261 34.5034 12.6861 32.4497L12.6382 30.1403L12.3984 29.9486C12.0308 29.6529 11.6153 29.6849 11.2717 30.0285Z" fill="white"/>
<path d="M20.7251 29.9168C20.4215 30.1565 20.3096 30.5561 20.4614 30.8997C20.7171 31.523 22.3713 32.5778 23.6259 32.9294C24.0414 33.0413 24.433 33.0732 25.5437 33.0732C26.9022 33.0653 26.9661 33.0573 27.7013 32.8095C28.5164 32.5378 29.1876 32.1703 29.9068 31.5949C30.4182 31.1874 30.5781 30.9237 30.5781 30.5161C30.5781 29.9168 29.8109 29.5412 29.2995 29.8928C29.1876 29.9647 28.9399 30.1645 28.7481 30.3323C27.957 31.0196 26.7344 31.4351 25.5038 31.4351C24.2092 31.4351 23.0745 31.0275 22.0756 30.2125C21.4523 29.701 21.1007 29.6211 20.7251 29.9168Z" fill="white"/>
<path d="M38.6569 29.8846C38.2893 30.1483 38.2493 30.404 38.2493 32.5775C38.2493 34.1358 38.2173 34.7031 38.1294 35.0707C37.7619 36.4771 36.6431 37.6358 35.2207 38.0674C34.7732 38.2112 34.4776 38.2272 32.7035 38.2272C31.5768 38.2272 30.5699 38.2671 30.4021 38.3071C29.7708 38.4829 29.5711 39.1941 30.0106 39.6815L30.2423 39.9452L32.2481 39.9692C34.4536 39.9932 35.3166 39.9053 36.1876 39.5537C37.626 38.9703 38.8167 37.8276 39.448 36.4372C39.8875 35.4703 39.9434 35.0947 39.9834 32.8013C40.0313 30.5079 39.9914 30.2042 39.6318 29.9245C39.384 29.7247 38.9206 29.7088 38.6569 29.8846Z" fill="white"/>
</svg>
