<svg width="205" height="32" viewBox="0 0 205 32" fill="none" xmlns="http://www.w3.org/2000/svg">
<g clip-path="url(#clip0_24_12)">
<path d="M56.0707 27.0352L56.0734 27.0345L55.1661 31.816H32.6641C32.6641 31.816 33.2086 28.6896 33.39 27.4023C33.5714 26.2988 33.5714 25.5632 33.5714 23.3564V7.90801C33.5714 7.35766 33.5262 6.8073 33.481 6.25695L33.4807 6.25292L33.4803 6.24854C33.4352 5.69818 33.39 5.14794 33.39 4.5977C33.39 4.52508 33.3869 4.45569 33.3813 4.38902C33.3739 4.29844 33.3622 4.2129 33.3484 4.13152C33.3431 4.10055 33.3375 4.07012 33.3317 4.04016C33.3171 3.96506 33.3013 3.89334 33.2858 3.82407L33.2678 3.74259C33.2576 3.69567 33.2479 3.64976 33.2396 3.60441C33.2306 3.55581 33.2232 3.50799 33.2177 3.46063C33.2152 3.43919 33.2132 3.41785 33.2117 3.39652C33.2097 3.36778 33.2086 3.33905 33.2086 3.31031C33.1938 3.19178 33.1792 3.07561 33.1645 2.96179C33.15 2.84988 33.1354 2.74032 33.1207 2.633C32.7826 3.31312 32.4264 4.06284 32.039 4.87786L31.7288 5.53004C31.4002 6.2198 31.0488 6.95188 30.668 7.72404C30.2789 8.5128 29.9418 9.24871 29.6291 9.93162L29.6281 9.93331C29.5384 10.1294 29.4506 10.321 29.3643 10.5084C29.1905 10.8853 29.0218 11.2446 28.8533 11.5862L21.7761 28.5057L23.0464 31.632H13.7914L5.44401 11.2183C5.19092 10.6322 4.94503 10.0533 4.70358 9.48465C3.73278 7.1986 2.83188 5.07756 1.81467 3.31031C1.08876 2.02294 0.544379 1.1034 0 0.183863H11.6139C11.6139 0.183863 11.6139 0.5517 11.7953 1.1034C12.1583 2.94247 12.7027 5.1494 13.61 7.54017C13.973 8.82755 14.5174 10.2988 15.0617 11.77L19.9614 24.0919L24.861 11.2183C25.5868 9.19539 26.4941 6.62064 27.4015 3.86202L28.6718 0.183863H32.5665C32.5397 0.120218 32.5116 0.0589305 32.4827 0H54.8031L55.8918 4.78156C55.6677 4.74912 55.4605 4.71668 55.2533 4.68423C54.2862 4.53281 53.3192 4.3814 50.6294 4.22986C50.3393 4.22986 49.9982 4.22515 49.6202 4.21728C49.1876 4.20831 48.7069 4.19505 48.1989 4.18001L47.1301 4.14701C45.5704 4.0982 43.9016 4.04599 42.6448 4.04599V13.2414C45.7297 13.2414 48.4517 13.0574 50.6294 12.8735C51.1406 12.8735 51.5943 12.8152 51.9904 12.7642C52.2972 12.7247 52.5694 12.6897 52.807 12.6897H53.7143L52.444 17.4713C51.4313 17.3859 50.6931 17.3002 49.956 17.2148L49.9484 17.2138C49.1033 17.1158 48.2581 17.0176 47 16.9196C46.6346 16.9196 46.1809 16.8897 45.639 16.8541C44.8352 16.8012 43.837 16.7356 42.6448 16.7356V27.954C45.909 27.954 49.3545 27.7703 52.8 27.5865L52.807 27.5862C54.2572 27.4025 55.1642 27.2188 56.0707 27.0352Z" fill="#002337"/>
<path fill-rule="evenodd" clip-rule="evenodd" d="M80.5713 16.1838C80.7527 16.1838 80.7527 16.1838 80.9343 15.9998C82.2046 15.4481 83.4747 14.7126 84.5636 13.7931C85.8338 12.5057 86.5597 11.0344 86.5597 9.19536C86.5597 7.35628 86.1967 5.70107 85.6523 4.59768C84.9264 3.31029 84.0192 2.39075 82.7489 1.83906C81.66 1.28724 80.2083 0.735538 78.7566 0.551675C77.1234 0.3677 75.3088 0.183838 73.3126 0.183838H58.0695C58.4324 0.919513 58.6138 2.02291 58.7954 3.49416C59.1582 6.06891 59.1582 8.45968 59.1582 10.6666V23.5402C59.1582 25.747 59.1582 26.4826 58.9768 27.5862C58.7954 28.8734 58.2509 31.9998 58.2509 31.9998H69.3204C69.1389 31.2643 68.9575 30.1608 68.7759 28.5057C68.413 25.9309 68.413 23.724 68.413 21.3332V17.6551H70.7722C72.9496 17.6551 74.5829 18.3908 75.6717 20.7815L77.1234 23.724L80.9343 31.816H90.7334L80.5713 16.1838ZM71.135 3.67813C73.4942 3.67813 75.1273 4.22984 76.2162 5.14937C77.1234 6.06891 77.4863 7.35628 77.4863 9.19536C77.4863 11.0344 76.7605 12.5057 75.4902 13.4252C74.4014 13.9769 73.1312 14.5286 71.3165 14.7126C71.1712 14.7126 71.0128 14.7258 70.845 14.745C70.7212 14.7591 70.5921 14.7766 70.4595 14.7946C70.0983 14.8436 69.7094 14.8964 69.3204 14.8964H68.2316V3.67813H71.135Z" fill="#002337"/>
<path d="M106.339 3.862C107.236 3.86491 108.896 3.88703 110.15 4.04585C111.783 4.22972 113.417 4.41392 115.05 4.9654L113.961 0.183838H89.1001L88.0114 4.9654C89.6442 4.41381 91.2769 4.22984 92.9097 4.04585C94.18 3.862 96.1774 3.862 97.0847 3.862V21.1494C97.0847 23.724 97.0847 25.1953 96.9033 27.2183C96.7768 28.1149 96.5624 29.3686 96.3825 30.4196L96.3796 30.4374L96.3626 30.5358L96.3471 30.6267C96.2828 31.0039 96.224 31.3483 96.1774 31.632H107.247C107.225 31.4992 107.201 31.353 107.174 31.1963C107.134 30.9588 107.089 30.6971 107.042 30.4214C106.862 29.37 106.648 28.1155 106.521 27.2183C106.339 25.1953 106.339 23.724 106.339 21.1494V3.862Z" fill="#002337"/>
<path d="M140.815 27.0352L140.818 27.0345L139.73 32H117.228C117.228 32 117.772 28.8736 117.953 27.5862C118.135 26.4828 118.135 25.7471 118.135 23.5402V8.09199C118.135 7.54017 118.09 6.98848 118.044 6.43677C118.028 6.24359 118.012 6.05042 117.998 5.85712C117.973 5.4986 117.953 5.14007 117.953 4.78156V3.31031C117.772 1.83908 117.591 0.735676 117.228 0H139.548L140.637 4.78156C140.412 4.74912 140.206 4.71668 139.998 4.68423C139.031 4.53281 138.064 4.3814 135.374 4.22986C134.526 4.22986 133.243 4.18979 131.875 4.14701C130.315 4.0982 128.647 4.04599 127.39 4.04599V13.2414C130.475 13.2414 133.197 13.0574 135.374 12.8735C135.885 12.8735 136.339 12.8152 136.735 12.7642C137.042 12.7247 137.314 12.6897 137.552 12.6897H138.459L137.189 17.4713C136.176 17.3859 135.438 17.3002 134.701 17.2148L134.693 17.2138C134.43 17.1833 134.167 17.1527 133.891 17.1223C133.732 17.1046 133.568 17.087 133.399 17.0694C132.918 17.0195 132.385 16.9695 131.745 16.9196C131.38 16.9196 130.926 16.8897 130.384 16.8541C129.58 16.8012 128.582 16.7356 127.39 16.7356V27.954C130.654 27.954 134.099 27.7703 137.545 27.5865L137.552 27.5862C139.002 27.4025 139.909 27.2188 140.815 27.0352Z" fill="#002337"/>
<path fill-rule="evenodd" clip-rule="evenodd" d="M165.498 16.1838C165.57 16.1838 165.613 16.1838 165.651 16.1722C165.688 16.1611 165.717 16.1395 165.762 16.0973C165.789 16.0726 165.82 16.0408 165.86 15.9998C167.131 15.4481 168.402 14.7126 169.49 13.7931C170.761 12.5057 171.487 11.0344 171.487 9.19536C171.487 7.35628 171.123 5.70107 170.578 4.59768C169.854 3.31029 168.945 2.39075 167.676 1.83906C166.586 1.28724 165.134 0.735538 163.683 0.551675C162.05 0.3677 160.236 0.183838 158.239 0.183838H143.177C143.541 0.919513 143.722 2.02291 143.903 3.49416C144.267 6.06891 144.267 8.45968 144.267 10.6666V23.5402C144.267 25.747 144.267 26.4826 144.085 27.5862C143.903 28.8734 143.36 31.9998 143.36 31.9998H154.247C154.066 31.2643 153.883 30.1608 153.702 28.5057C153.34 25.9309 153.34 23.724 153.34 21.3332V17.6551H155.699C157.877 17.6551 159.51 18.3908 160.598 20.7815L162.05 23.724L165.86 31.816H175.66L175.54 31.6321H176.386L177.656 27.954C177.96 27.0327 178.261 26.1757 178.552 25.3559C178.957 24.2118 179.336 23.1403 179.652 22.0689C179.746 22.0957 179.85 22.1255 179.965 22.1582C181.422 22.575 184.583 23.4771 187.273 25.0115C191.629 27.5862 193.262 31.2643 193.262 31.2643V31.4483H204.876C204.695 30.8964 204.15 29.793 203.425 28.6897C202.407 26.9222 201.507 24.801 200.535 22.5146C200.293 21.9462 200.048 21.3675 199.795 20.7815L191.447 0.367813H182.193L183.462 3.49427L176.386 20.2298C176.133 20.7418 175.88 21.2932 175.611 21.8843C175.297 22.5672 174.96 23.3032 174.571 24.0919C174.067 25.1124 173.615 26.063 173.2 26.9382C173.097 27.1531 172.997 27.3638 172.899 27.5696L165.498 16.1838ZM153.34 3.67813H156.061C158.42 3.67813 160.054 4.22984 161.143 5.14937C162.05 6.06891 162.413 7.35628 162.413 9.19536C162.413 11.0344 161.687 12.5057 160.417 13.4252C159.328 14.1608 158.058 14.7126 156.425 14.8964C156.172 14.8964 155.88 14.9361 155.567 14.9784C155.206 15.0275 154.817 15.0803 154.428 15.0803H153.34V3.67813ZM189.996 20.2298L185.097 7.90799L180.922 18.9425C181.223 19.0294 181.685 19.1777 182.27 19.3658C184.164 19.9744 187.352 20.9987 190.54 21.7011C190.359 21.1494 190.177 20.7815 189.996 20.2298Z" fill="#002337"/>
</g>
<defs>
<clipPath id="clip0_24_12">
<rect width="205" height="32" fill="white"/>
</clipPath>
</defs>
</svg>
