<svg width="565" height="86" viewBox="0 0 565 86" fill="none" xmlns="http://www.w3.org/2000/svg">
<g clip-path="url(#clip0_24_384)">
<path d="M154.536 71.928L154.544 71.926L152.043 84.6474H90.0254C90.0254 84.6474 91.5261 76.3296 92.0261 72.9047C92.5261 69.9687 92.5261 68.0117 92.5261 62.1403V21.0395C92.5261 19.5753 92.4015 18.111 92.2769 16.6468L92.2761 16.6361L92.2749 16.6244C92.1507 15.1602 92.0261 13.6963 92.0261 12.2323C92.0261 12.0391 92.0176 11.8545 92.0021 11.6771C91.9816 11.4361 91.9495 11.2086 91.9116 10.992C91.8969 10.9096 91.8814 10.8287 91.8655 10.749C91.8253 10.5492 91.7815 10.3583 91.739 10.1741L91.6894 9.95727C91.6612 9.83243 91.6345 9.7103 91.6116 9.58964C91.5869 9.46034 91.5664 9.3331 91.5513 9.2071C91.5443 9.15006 91.5389 9.09329 91.5346 9.03656C91.5292 8.96009 91.5261 8.88366 91.5261 8.80719C91.4855 8.49183 91.4452 8.18275 91.4046 7.87993C91.3648 7.58218 91.3245 7.29071 91.2839 7.00519C90.352 8.81466 89.3702 10.8093 88.3025 12.9777L87.4477 14.7128C86.5421 16.548 85.5735 18.4957 84.524 20.5501C83.4517 22.6486 82.5225 24.6065 81.6607 26.4234L81.658 26.4279C81.4107 26.9496 81.1688 27.4594 80.9308 27.9578C80.4517 28.9607 79.987 29.9166 79.5226 30.8254L60.0169 75.8404L63.518 84.1579H38.0106L15.0042 29.8467C14.3067 28.2872 13.629 26.7471 12.9635 25.2342C10.2879 19.1521 7.80493 13.509 5.00141 8.80719C3.00072 5.38209 1.50036 2.93564 0 0.489174H32.0091C32.0091 0.489174 32.0091 1.46782 32.5091 2.93564C33.5095 7.82854 35.0098 13.7001 37.5105 20.0609C38.5109 23.486 40.0113 27.4003 41.5116 31.3145L55.0155 64.0973L68.5194 29.8467C70.5197 24.4646 73.0204 17.6144 75.5211 10.275L79.0222 0.489174H89.7564C89.6825 0.319844 89.6051 0.156786 89.5254 0H151.043L154.043 12.7215C153.426 12.6352 152.855 12.5489 152.283 12.4625C149.618 12.0597 146.953 11.6568 139.54 11.2537C138.74 11.2537 137.8 11.2411 136.758 11.2202C135.566 11.1963 134.241 11.1611 132.841 11.1211L129.895 11.0332C125.596 10.9034 120.997 10.7645 117.533 10.7645V35.2291C126.036 35.2291 133.538 34.7396 139.54 34.2505C140.949 34.2505 142.199 34.0952 143.291 33.9596C144.136 33.8545 144.886 33.7613 145.541 33.7613H148.042L144.541 46.4829C141.75 46.2557 139.715 46.0278 137.684 45.8006L137.663 45.7979C135.333 45.5371 133.004 45.2758 129.537 45.015C128.529 45.015 127.279 44.9357 125.786 44.8409C123.57 44.7 120.819 44.5255 117.533 44.5255V74.3726C126.53 74.3726 136.026 73.8838 145.522 73.3947L145.541 73.3939C149.538 72.9051 152.038 72.4164 154.536 71.928Z" fill="#002337"/>
<path fill-rule="evenodd" clip-rule="evenodd" d="M222.062 43.0577C222.562 43.0577 222.562 43.0577 223.063 42.5682C226.564 41.1004 230.065 39.1434 233.066 36.697C236.566 33.2719 238.567 29.3576 238.567 24.4647C238.567 19.5718 237.567 15.168 236.066 12.2324C234.066 8.80727 231.565 6.36082 228.064 4.89302C225.063 3.42489 221.062 1.95707 217.061 1.4679C212.56 0.978428 207.559 0.489258 202.057 0.489258H160.045C161.046 2.44655 161.546 5.38217 162.046 9.29646C163.046 16.1467 163.046 22.5074 163.046 28.379V62.6296C163.046 68.5009 163.046 70.4579 162.546 73.394C162.046 76.8188 160.545 85.1367 160.545 85.1367H191.054C190.554 83.1797 190.054 80.244 189.553 75.8405C188.553 68.9901 188.553 63.1187 188.553 56.7578V46.9721H195.055C201.056 46.9721 205.558 48.9295 208.559 55.29L212.56 63.1187L223.063 84.6475H250.07L222.062 43.0577ZM196.055 9.78592C202.557 9.78592 207.058 11.2538 210.059 13.7002C212.56 16.1467 213.56 19.5718 213.56 24.4647C213.56 29.3576 211.56 33.2719 208.059 35.7184C205.057 37.1862 201.557 38.654 196.555 39.1434C196.155 39.1434 195.718 39.1786 195.256 39.2297C194.915 39.2672 194.559 39.3136 194.193 39.3616C193.198 39.492 192.126 39.6325 191.054 39.6325H188.053V9.78592H196.055Z" fill="#002337"/>
<path d="M293.082 10.2751C295.554 10.2829 300.129 10.3417 303.585 10.7643C308.085 11.2535 312.589 11.7435 317.089 13.2108L314.088 0.489258H245.569L242.568 13.2108C247.068 11.7432 251.568 11.2538 256.068 10.7643C259.569 10.2751 265.074 10.2751 267.575 10.2751V56.2687C267.575 63.1187 267.575 67.0331 267.075 72.4153C266.726 74.8007 266.135 78.1361 265.64 80.9325L265.631 80.9797L265.585 81.2417L265.542 81.4835C265.365 82.487 265.203 83.4034 265.074 84.158H295.583C295.523 83.8047 295.455 83.4158 295.382 82.999C295.272 82.367 295.148 81.6708 295.018 80.9371C294.522 78.14 293.931 74.8022 293.582 72.4153C293.082 67.0331 293.082 63.1187 293.082 56.2687V10.2751Z" fill="#002337"/>
<path d="M388.101 71.928L388.109 71.9261L385.108 85.137H323.091C323.091 85.137 324.591 76.8191 325.091 73.3939C325.591 70.4582 325.591 68.5008 325.591 62.6295V21.529C325.591 20.0609 325.466 18.5931 325.341 17.1252C325.298 16.6113 325.254 16.0973 325.215 15.583C325.144 14.6292 325.091 13.6753 325.091 12.7215V8.80719C324.591 4.89294 324.091 1.95729 323.091 0H384.608L387.609 12.7215C386.99 12.6352 386.42 12.5489 385.849 12.4625C383.184 12.0597 380.518 11.6568 373.105 11.2537C370.768 11.2537 367.23 11.1471 363.46 11.0333C359.162 10.9034 354.563 10.7645 351.098 10.7645V35.2291C359.601 35.2291 367.103 34.7396 373.105 34.2505C374.514 34.2505 375.764 34.0952 376.856 33.9596C377.701 33.8545 378.452 33.7613 379.106 33.7613H381.607L378.106 46.4829C375.315 46.2557 373.281 46.0278 371.249 45.8006L371.228 45.7979C370.503 45.7166 369.777 45.6354 369.017 45.5545C368.578 45.5073 368.128 45.4604 367.659 45.4136C366.335 45.2809 364.866 45.1478 363.102 45.015C362.095 45.015 360.845 44.9357 359.351 44.8409C357.136 44.7 354.385 44.5255 351.098 44.5255V74.3726C360.095 74.3726 369.591 73.8838 379.087 73.3947L379.106 73.3939C383.104 72.9051 385.604 72.4164 388.101 71.928Z" fill="#002337"/>
<path fill-rule="evenodd" clip-rule="evenodd" d="M456.129 43.0577C456.326 43.0577 456.446 43.0577 456.551 43.0268C456.651 42.9974 456.733 42.9397 456.857 42.8275C456.93 42.7617 457.015 42.6773 457.127 42.5682C460.63 41.1004 464.132 39.1434 467.131 36.697C470.633 33.2719 472.634 29.3576 472.634 24.4647C472.634 19.5718 471.632 15.168 470.13 12.2324C468.133 8.80727 465.63 6.36082 462.131 4.89302C459.128 3.42489 455.127 1.95707 451.125 1.4679C446.625 0.978428 441.625 0.489258 436.122 0.489258H394.61C395.612 2.44655 396.111 5.38217 396.611 9.29646C397.613 16.1467 397.613 22.5074 397.613 28.379V62.6296C397.613 68.5009 397.613 70.4579 397.114 73.394C396.611 76.8188 395.113 85.1367 395.113 85.1367H425.12C424.621 83.1797 424.118 80.244 423.618 75.8405C422.62 68.9901 422.62 63.1187 422.62 56.7578V46.9721H429.121C435.123 46.9721 439.624 48.9295 442.623 55.29L446.625 63.1187L457.127 84.6475H484.135L483.806 84.1584H486.136L489.638 74.3727C490.474 71.9215 491.306 69.6414 492.107 67.4603C493.222 64.4163 494.267 61.5657 495.137 58.7152C495.397 58.7864 495.683 58.8657 496 58.9528C500.017 60.0615 508.728 62.4616 516.143 66.5439C528.147 73.394 532.648 83.1797 532.648 83.1797V83.6692H564.659C564.16 82.201 562.659 79.2653 560.658 76.33C557.852 71.6274 555.372 65.984 552.694 59.9009C552.028 58.3886 551.351 56.8492 550.654 55.29L527.648 0.97873H502.142L505.64 9.29677L486.136 53.8221C485.439 55.1843 484.743 56.6514 484 58.2241C483.137 60.041 482.208 61.9992 481.136 64.0974C479.747 66.8125 478.501 69.3415 477.355 71.67C477.073 72.2419 476.798 72.8023 476.527 73.3499L456.129 43.0577ZM422.62 9.78592H430.12C436.621 9.78592 441.126 11.2538 444.125 13.7002C446.625 16.1467 447.627 19.5718 447.627 24.4647C447.627 29.3576 445.626 33.2719 442.124 35.7184C439.125 37.6754 435.623 39.1434 431.122 39.6325C430.425 39.6325 429.621 39.7382 428.758 39.8508C427.763 39.9812 426.691 40.1217 425.619 40.1217H422.62V9.78592ZM523.647 53.8221L510.145 21.0396L498.64 50.3973C499.468 50.6283 500.741 51.0231 502.355 51.5234C507.575 53.1426 516.36 55.8678 525.148 57.7365C524.649 56.2687 524.146 55.29 523.647 53.8221Z" fill="#002337"/>
</g>
<defs>
<clipPath id="clip0_24_384">
<rect width="565" height="85.137" fill="white"/>
</clipPath>
</defs>
</svg>
