<svg xmlns="http://www.w3.org/2000/svg" version="1.1" xmlns:xlink="http://www.w3.org/1999/xlink" width="32" height="32" x="0" y="0" viewBox="0 0 64 64" style="enable-background:new 0 0 512 512" xml:space="preserve" class=""><g><path d="M21.636 47.071a17.618 17.618 0 0 1-6.312-2.053.982.982 0 0 0-.623-.114l-7.406 1.061 1.061-7.407a1.005 1.005 0 0 0-.114-.624C-.256 22.128 17.05 5.044 32.743 13.757a1 1 0 0 0 .986-1.74C16.424 2.403-2.741 21.037 6.33 38.601l-1.203 8.4a1 1 0 0 0 1.132 1.132l8.4-1.204a19.572 19.572 0 0 0 6.727 2.125 1 1 0 1 0 .25-1.983Z" fill="#00ab97" opacity="1" data-original="#000000" class=""></path><path d="M54.192 20.666c-19.426-17.885-46.02 8.7-28.132 28.13a19.985 19.985 0 0 0 23.334 3.536l8.402 1.201a1 1 0 0 0 1.131-1.131L57.727 44a19.982 19.982 0 0 0-3.535-23.334Zm-4.84 29.64C30.576 59.85 13.097 37.662 27.472 22.08a17.893 17.893 0 0 1 28.342 21.255 1 1 0 0 0-.114.623l1.058 7.408Z" fill="#00ab97" opacity="1" data-original="#000000" class=""></path><path d="M33.635 34.722a1 1 0 0 0-1.344.438l-.966 1.901c-2.015-7.13 5.413-13.697 12.3-10.813.662.32 1.435.662 1.908-.136.5-.912-.439-1.519-1.183-1.727-8.18-3.429-17.162 4.203-15.043 12.79l-1.678-.969a1 1 0 1 0-1 1.732l4.108 2.37a.999.999 0 0 0 1.39-.414l1.946-3.828a1 1 0 0 0-.438-1.344ZM53.603 31.335c-5.887-3.117-4.105-3.622-7.452 2.132a1 1 0 0 0 1.748.97l1.114-2.008c2.031 7.22-5.614 13.743-12.444 10.723-1.627-.96-2.56 1.39-.729 1.861 8.14 3.55 17.4-4.037 15.162-12.836l1.631.906a1 1 0 0 0 .97-1.748Z" fill="#00ab97" opacity="1" data-original="#000000" class=""></path></g></svg>