<svg
xmlns="http://www.w3.org/2000/svg"
width="22"
height="21"
viewBox="0 0 22 21"
fill="none"
>
<path
    d="M8.02258 3.96863V9.38062"
    stroke="black"
    stroke-width="1.46799"
    stroke-linecap="round"
    stroke-linejoin="round"
/>
<path
    d="M8.02258 9.38074L10.7139 18.3453C10.797 18.6426 10.9747 18.9048 11.2201 19.092C11.4657 19.2792 11.7655 19.3813 12.0742 19.3826C12.2618 19.3814 12.4474 19.3432 12.6203 19.2702C12.7931 19.1972 12.9499 19.0908 13.0818 18.9572C13.2135 18.8236 13.3177 18.6654 13.3883 18.4916C13.4589 18.3177 13.4945 18.1317 13.4933 17.944V12.7767"
    stroke="black"
    stroke-width="1.46799"
    stroke-linecap="round"
    stroke-linejoin="round"
/>
<path
    d="M1.49598 10.5747C1.47168 11.0183 1.53808 11.4624 1.69114 11.8795C1.84418 12.2966 2.08066 12.6781 2.38612 13.0007C2.69158 13.3234 3.05961 13.5804 3.46773 13.756C3.87586 13.9316 4.3155 14.0222 4.75981 14.0222C5.20412 14.0222 5.64376 13.9316 6.05189 13.756C6.46001 13.5804 6.82807 13.3234 7.13353 13.0007C7.43899 12.6781 7.67547 12.2966 7.82852 11.8795C7.98157 11.4624 8.04797 11.0183 8.02367 10.5747V5.06485C8.04797 4.6212 7.98157 4.17728 7.82852 3.76017C7.67547 3.34304 7.43899 2.96145 7.13353 2.6388C6.82807 2.31614 6.46001 2.05916 6.05189 1.88353C5.64376 1.7079 5.20412 1.61731 4.75981 1.61731C4.3155 1.61731 3.87586 1.7079 3.46773 1.88353C3.05961 2.05916 2.69158 2.31614 2.38612 2.6388C2.08066 2.96145 1.84418 3.34304 1.69114 3.76017C1.53808 4.17728 1.47168 4.6212 1.49598 5.06485V10.5747Z"
    stroke="black"
    stroke-width="1.46799"
    stroke-linecap="round"
    stroke-linejoin="round"
/>
<path
    d="M8.02264 5.06481C8.02007 4.63426 8.10229 4.20744 8.26468 3.80869C8.42706 3.40993 8.66639 3.04705 8.96902 2.74078C9.27164 2.43453 9.63158 2.19088 10.0284 2.02375C10.4252 1.85662 10.851 1.76929 11.2816 1.76672H15.3137C16.2538 1.76743 17.1684 2.07307 17.9201 2.63774C18.6719 3.20242 19.2202 3.99567 19.4828 4.89845L20.9508 9.87003C21.0676 10.2005 21.1039 10.5541 21.0566 10.9014C21.0092 11.2487 20.8797 11.5798 20.6787 11.8669C20.4777 12.154 20.211 12.3891 19.9009 12.5524C19.5907 12.7158 19.246 12.8027 18.8956 12.806H13.5129"
    stroke="black"
    stroke-width="1.46799"
    stroke-linecap="round"
    stroke-linejoin="round"
/>
</svg>