<svg
xmlns="http://www.w3.org/2000/svg"
width="22"
height="21"
viewBox="0 0 22 21"
fill="none"
>
<path
    d="M7.46448 17.0459V11.6339"
    stroke="black"
    stroke-width="1.46799"
    stroke-linecap="round"
    stroke-linejoin="round"
/>
<path
    d="M0.918711 10.44C0.894411 9.99642 0.960813 9.5525 1.11387 9.13539C1.26691 8.71819 1.50337 8.33671 1.80883 8.01404C2.1143 7.69139 2.48234 7.43435 2.89046 7.25872C3.29859 7.08309 3.73824 6.99255 4.18255 6.99255C4.62687 6.99255 5.06651 7.08309 5.47463 7.25872C5.88276 7.43435 6.2508 7.69139 6.55626 8.01404C6.86172 8.33671 7.0982 8.71819 7.25125 9.13539C7.40429 9.5525 7.47068 9.99642 7.44638 10.44V15.9499C7.47068 16.3935 7.40429 16.8375 7.25125 17.2547C7.0982 17.6718 6.86172 18.0532 6.55626 18.3759C6.2508 18.6986 5.88276 18.9556 5.47463 19.1312C5.06651 19.3068 4.62687 19.3974 4.18255 19.3974C3.73824 19.3974 3.29859 19.3068 2.89046 19.1312C2.48234 18.9556 2.1143 18.6986 1.80883 18.3759C1.50337 18.0532 1.26691 17.6718 1.11387 17.2547C0.960813 16.8375 0.894411 16.3935 0.918711 15.9499V10.44Z"
    stroke="black"
    stroke-width="1.46799"
    stroke-linecap="round"
    stroke-linejoin="round"
/>
<path
    d="M7.46454 15.9498C7.46196 16.3803 7.54421 16.8071 7.70659 17.2059C7.86898 17.6046 8.10831 17.9675 8.41093 18.2738C8.71354 18.5801 9.07349 18.8237 9.47034 18.9908C9.86709 19.158 10.2929 19.2454 10.7235 19.2479H14.7556C15.6957 19.2472 16.6104 18.9416 17.3621 18.3769C18.1138 17.8122 18.6621 17.0189 18.9247 16.1162L20.3927 11.1446C20.5095 10.8141 20.5457 10.4605 20.4985 10.1132C20.4511 9.76585 20.3215 9.43487 20.1206 9.14773C19.9196 8.86059 19.6529 8.62552 19.3428 8.46218C19.0326 8.29884 18.688 8.21194 18.3375 8.20861H12.9353V3.04127C12.9366 2.85362 12.9008 2.66761 12.8303 2.49376C12.7596 2.31991 12.6555 2.16167 12.5237 2.02808C12.3919 1.89449 12.2352 1.78814 12.0622 1.71514C11.8894 1.64215 11.7038 1.60394 11.5162 1.60266C11.2075 1.60406 10.9076 1.70612 10.6622 1.89332C10.4166 2.08053 10.2389 2.34268 10.1559 2.64004L7.46454 11.6046"
    stroke="black"
    stroke-width="1.46799"
    stroke-linecap="round"
    stroke-linejoin="round"
/>
</svg>